<?xml version="1.0" encoding="UTF-8"?>
<svg id="Layer_1" xmlns="http://www.w3.org/2000/svg" version="1.1" viewBox="0 0 353.8 77.6">
  <defs>
    <style>
      .st0 { fill: #fed24e; }
      .st1 { fill: #d03d40; }
      .st2 { fill: #d0721b; }
      .st3 { fill: #d00a3f; fill-rule: evenodd; }
      .st4 { fill: #ec6b22; fill-rule: evenodd; }
    </style>
  </defs>
  <path class="st3" d="M222.2,53.2c-.9-.9-2.1-1.4-3.3-1.4h-3.1c-.8,0-1.5-.3-2-.8-.5-.5-.8-1.2-.8-1.9v-23.3h5.9c1.3,0,2.5-.5,3.3-1.4.9-.9,1.5-2.1,1.4-3.4h0c0-2.7-2.1-4.8-4.8-4.9h-5.9V4.8c0-1.3-.5-2.5-1.4-3.4C210.6.5,209.4,0,208.2,0h-.2c-1.2,0-2.4.5-3.3,1.4-.9.9-1.4,2.1-1.4,3.4v44.3c0,6.8,5.6,12.3,12.4,12.3h3.2c1.3,0,2.5-.5,3.3-1.4.9-.8,1.5-2.1,1.5-3.3h0c0-1.4-.5-2.6-1.4-3.5Z"/>
  <path class="st3" d="M238.8,17.6c.9.9,1.4,2.1,1.4,3.4v35.8c0,2.6-2.1,4.7-4.8,4.8h0c-1.3,0-2.5-.5-3.3-1.5-.9-.9-1.5-2.1-1.4-3.3V20.9c0-2.6,2.2-4.8,4.8-4.8h0c1.3,0,2.5.5,3.4,1.4Z"/>
  <path class="st3" d="M240.9,5.4h0c0,1.6-.6,3-1.6,4-1,1-2.4,1.6-3.9,1.6h0c-1.5,0-2.9-.5-3.9-1.6-1.1-1-1.7-2.4-1.6-3.9,0-1.5.6-2.8,1.6-3.9,2.1-2.1,5.6-2.1,7.7,0,1,1,1.6,2.3,1.6,3.8Z"/>
  <path class="st3" d="M193.8,4.8v51.9c0,1.2-.5,2.5-1.4,3.3-.9.9-2.1,1.4-3.3,1.4h0c-1.3,0-2.5-.5-3.4-1.4-.9-.9-1.5-2.1-1.4-3.3V4.8c0-1.3.5-2.5,1.4-3.4C186.5.5,187.7,0,189,0h0c1.3,0,2.5.5,3.3,1.4.9.9,1.4,2.1,1.4,3.4Z"/>
  <path class="st3" d="M174.8,20.9v21.5c0,5-2,9.9-5.6,13.4-7.4,7.4-19.3,7.4-26.8,0h0c-3.6-3.6-5.7-8.5-5.6-13.5v-21.5c0-1.3.5-2.5,1.4-3.4.9-.9,2.1-1.4,3.3-1.4h.1c1.3,0,2.5.5,3.3,1.4.9.9,1.4,2.1,1.4,3.4v21.5c-.2,5.2,3.9,9.5,9.1,9.7,5.2.1,9.5-3.9,9.7-9v-22.1c0-2.6,2.2-4.8,4.8-4.8h0c1.3,0,2.5.5,3.3,1.4.9.9,1.4,2.1,1.4,3.4Z"/>
  <path class="st3" d="M128.8,35.1v21.6c0,1.2-.5,2.4-1.4,3.3-.9.9-2.1,1.4-3.4,1.4h0c-2.6,0-4.7-2.2-4.8-4.8v-21.6c0-5.1-4.2-9.3-9.3-9.3s-9.3,4.2-9.3,9.3v21.6c0,2.6-2.2,4.7-4.8,4.8h0c-1.3,0-2.5-.5-3.4-1.5-.9-.8-1.4-2-1.4-3.3v-21.6c.2-5.1-3.8-9.4-9-9.6s-9.4,3.8-9.6,9v22.2c0,1.2-.5,2.5-1.4,3.3-.9.9-2.1,1.4-3.3,1.4h-.1c-1.3,0-2.5-.5-3.3-1.4-.9-.9-1.5-2.1-1.4-3.3v-21.6c0-5,1.9-9.9,5.5-13.4,3.5-3.6,8.3-5.6,13.4-5.6,6.2,0,11,2.1,14.1,6.2,3.1-4.2,7.8-6.2,14.1-6.2,5,0,9.9,1.9,13.4,5.6,3.6,3.5,5.6,8.3,5.6,13.4Z"/>
  <path class="st4" d="M353.8,47.8c0,7.6-6.2,13.7-13.8,13.6h-10.3c-1.3,0-2.5-.5-3.3-1.5-.9-.9-1.4-2.1-1.4-3.3h0c0-2.7,2.1-4.8,4.8-4.9h10.7c2.2,0,4-1.7,4.1-3.9v-.2c0-1.5-.9-2.8-2.2-3.3-.4-.2-2.6-.8-6.6-2-2.6-.6-5-1.9-7-3.6-2.2-2.1-3.3-5.1-3.3-9,0-7.6,6.2-13.7,13.7-13.7h7.2c2.6,0,4.8,2.2,4.8,4.8h0c0,1.4-.5,2.6-1.4,3.4-.9.9-2.1,1.4-3.4,1.4h-7.7c-1.1,0-2.2.5-2.9,1.2-.8.8-1.2,1.8-1.2,2.9,0,1.5.9,2.9,2.3,3.5,2.1.8,4.3,1.5,6.6,2,2.6.6,5,1.8,7,3.5,2.2,2.1,3.3,5,3.3,8.9Z"/>
  <path class="st4" d="M318.7,20.9v37.7c0,5.1-2.1,10-5.9,13.4-3.4,3.6-8.2,5.6-13.1,5.6-3.8,0-7.5-1-10.8-2.9-3.1-1.8-5.5-4.4-7.2-7.6-.3-.6-.5-1.3-.5-2.1,0-2,1.3-3.8,3.1-4.5h.2c.5-.2,1.1-.3,1.7-.3,1.8,0,3.3,1,4.1,2.6.9,1.6,2.2,2.9,3.8,3.8,1.7,1,3.6,1.5,5.5,1.5,5.1-.1,9.3-4.3,9.4-9.4v-.3c-2.1,1.5-5.2,2.3-9.4,2.3-10.5,0-19-8.5-19-19v-20.7c0-2.6,2.1-4.8,4.8-4.8h.1c1.3,0,2.5.5,3.4,1.4.9.9,1.4,2.1,1.4,3.4v20.7c0,5.2,4.1,9.4,9.3,9.4h.1c5.2,0,9.4-4.2,9.4-9.4v-20.7c0-2.6,2.2-4.8,4.8-4.8h0c1.3,0,2.5.5,3.3,1.4.9.9,1.4,2.1,1.4,3.4Z"/>
  <path class="st4" d="M274.4,47.8c0,7.6-6.1,13.7-13.7,13.7h-10.3c-1.3,0-2.5-.6-3.3-1.5-.9-.9-1.4-2.1-1.4-3.3h0c0-2.7,2.1-4.8,4.8-4.8h10.7c2.2,0,4-1.7,4.1-3.9v-.2c0-1.5-.9-2.8-2.2-3.3-.4-.2-2.6-.8-6.6-2-2.6-.6-5-1.9-7-3.6-2.2-2.1-3.3-5.1-3.3-9,0-7.6,6.2-13.7,13.7-13.7h7.3c2.6,0,4.8,2.2,4.8,4.8h0c0,1.4-.5,2.6-1.4,3.4-.9.9-2.1,1.4-3.4,1.4h-7.7c-2.3,0-4.1,1.9-4.1,4.1,0,1.5.9,2.9,2.3,3.5,2.1.8,4.3,1.5,6.6,2,2.6.6,5,1.8,7,3.5,2.2,2.1,3.3,5,3.3,8.9Z"/>
  <path class="st0" d="M0,18.7h15.9v42.7H0V18.7Z"/>
  <path class="st2" d="M18.3,35.8h15.9v25.6h-15.9v-25.6Z"/>
  <path class="st1" d="M36.6.4h15.9v61h-15.9V.4Z"/>
</svg>
